<?xml version="1.0" encoding="utf-8"?>
<!-- Generator: Adobe Illustrator 27.5.0, SVG Export Plug-In . SVG Version: 6.00 Build 0)  -->
<svg version="1.1" id="Capa_1" xmlns="http://www.w3.org/2000/svg" xmlns:xlink="http://www.w3.org/1999/xlink" x="0px" y="0px"
	 viewBox="0 0 396.85 425.196" style="enable-background:new 0 0 396.85 425.196;" xml:space="preserve">
<rect style="fill:#FFFFFF;" width="396.85" height="425.196"/>
<g>
	<g>
		<path style="fill:#5D98C3;" d="M235.645,286.522l17.617,11.559c0,0,3.049,2.328-0.367,4.342l-145.492,60.816
			c-2.875,1.203-5.465-0.48-5.465-0.48l-19.264-12.672c-2.996-2.084,1.313-3.922,1.313-3.922l144.557-60.465
			C228.543,285.699,231.967,284.143,235.645,286.522z"/>
		<g>
			<g>
				<path style="fill:#4F4D92;" d="M232.811,40.603v253.499c0,7.934-5.35,9.375-5.35,9.375l-115.574,48.232
					c-9.613,1.643-8.529-7.49-8.529-7.49V93.764c0-8.978,5.895-10.3,5.895-10.3L224.23,35.9
					C224.23,35.9,232.811,31.151,232.811,40.603z"/>
				<path style="fill:#446BB0;" d="M92.309,341.463l14.762,9.943c-3.402-1.084-3.611-5.572-3.611-5.572l-0.102-251.673
					l-12.412-8.546v252.499C90.945,338.113,90.674,340.353,92.309,341.463z"/>
				<path style="fill:#446BB0;" d="M107.547,84.335c0,0-4.225,2.164-4.189,9.826l-12.412-8.436c0-5.568,2.77-8.503,4.422-9.752
					L107.547,84.335z"/>
				<path style="fill:#68B5E4;" d="M95.252,76.066c0.672-0.571,1.33-0.855,1.33-0.855l115.15-48.021c0,0,6.111-3.543,10.369-0.174
					l7.895,5.339c0,0,2.814,1.52,2.592,5.9c0,0-0.766-4.87-8.357-2.355L107.547,84.335L95.252,76.066z"/>
			</g>
			<polygon style="fill:#00B9DE;" points="103.369,337.201 103.361,104.177 232.811,50.12 232.811,284.018 			"/>
			<g>
				<polygon style="fill:#15285E;" points="153.035,72.733 153.035,77.921 181.902,65.53 181.902,60.588 				"/>
				<g>
					<path style="fill:#15285E;" d="M187.32,59.771c1.008,1.024,0.695,2.957-0.377,3.903c-0.328,0.289-0.842,0.569-1.279,0.606
						c-1.236,0.108-2.303-0.951-2.293-2.237c0.004-0.826,0.285-1.604,0.879-2.155c0.623-0.578,1.57-0.919,2.393-0.573
						C186.914,59.43,187.141,59.585,187.32,59.771z"/>
				</g>
			</g>
			<polygon style="opacity:0.8;fill:#FFFFFF;" points="103.361,104.177 103.369,337.201 232.811,284.018 			"/>
		</g>
	</g>
	<g>
		<g>
			<path style="fill:#4F4D92;" d="M209.008,152.259c20.881,20.531,14.404,59.31-7.832,78.286
				c-6.785,5.791-17.486,11.428-26.5,12.178c-25.654,2.154-47.746-19.098-47.598-44.872c0.098-16.574,5.918-32.161,18.248-43.235
				c12.902-11.566,32.561-18.407,49.607-11.467C200.563,145.438,205.234,148.546,209.008,152.259z"/>
		</g>
		<g>
			<g>
				<path style="fill:#4F4D92;" d="M203.318,171.535c0.549,1.67,1.004,3.424,1.357,5.27c0.316,1.673,0.531,3.363,0.672,5.06
					c-6.316,7.538-7.061,13.415-2.521,20.68c-1.117,3.426-2.563,6.706-4.299,9.762c-2.301,0.07-4.246,0.477-5.877,1.269
					c-3.926,1.91-6.055,6.068-7.074,13.223c-1.336,0.91-2.717,1.723-4.15,2.422c-1.439,0.701-2.875,1.256-4.303,1.691
					c-3.428-4.955-6.67-6.492-10.549-4.604c-1.611,0.783-3.33,2.158-5.221,4.125c-2.537-1.012-4.91-2.463-7.059-4.34
					c1.072-9.91-1.588-14.097-9.242-14.816c-0.492-1.547-0.908-3.164-1.234-4.865c-0.355-1.873-0.59-3.768-0.717-5.667
					c6.188-7.042,6.957-12.852,2.684-20.396c1.143-3.431,2.609-6.72,4.365-9.772c2.318,0.037,4.264-0.314,5.896-1.107
					c3.732-1.816,5.813-5.952,6.893-13.069c1.334-0.901,2.707-1.711,4.135-2.406c1.418-0.689,2.842-1.241,4.248-1.673
					c3.301,5.013,6.447,6.61,10.219,4.775c1.654-0.804,3.428-2.271,5.387-4.398c2.502,0.964,4.848,2.375,6.982,4.179
					C192.832,167.123,195.516,171.275,203.318,171.535z M178.092,211.737c8.988-4.373,14.561-16.937,12.439-28.051
					c-2.119-11.113-11.133-16.581-20.121-12.207c-8.996,4.376-14.563,16.937-12.441,28.05
					C160.088,210.643,169.096,216.111,178.092,211.737"/>
			</g>
			<g>
				<path style="fill:#FFFFFF;" d="M206.318,171.535c0.549,1.67,1.004,3.424,1.357,5.27c0.316,1.673,0.531,3.363,0.672,5.06
					c-6.316,7.538-7.061,13.415-2.521,20.68c-1.117,3.426-2.563,6.706-4.299,9.762c-2.301,0.07-4.246,0.477-5.877,1.269
					c-3.926,1.91-6.055,6.068-7.074,13.223c-1.336,0.91-2.717,1.723-4.15,2.422c-1.439,0.701-2.875,1.256-4.303,1.691
					c-3.428-4.955-6.67-6.492-10.549-4.604c-1.611,0.783-3.33,2.158-5.221,4.125c-2.537-1.012-4.91-2.463-7.059-4.34
					c1.072-9.91-1.588-14.097-9.242-14.816c-0.492-1.547-0.908-3.164-1.234-4.865c-0.355-1.873-0.59-3.768-0.717-5.667
					c6.188-7.042,6.957-12.852,2.684-20.396c1.143-3.431,2.609-6.72,4.365-9.772c2.318,0.037,4.264-0.314,5.896-1.107
					c3.732-1.816,5.813-5.952,6.893-13.069c1.334-0.901,2.707-1.711,4.135-2.406c1.418-0.689,2.842-1.241,4.248-1.673
					c3.301,5.013,6.447,6.61,10.219,4.775c1.654-0.804,3.428-2.271,5.387-4.398c2.502,0.964,4.848,2.375,6.982,4.179
					C195.832,167.123,198.516,171.275,206.318,171.535z M181.092,211.737c8.988-4.373,14.561-16.937,12.439-28.051
					c-2.119-11.113-11.133-16.581-20.121-12.207c-8.996,4.376-14.563,16.937-12.441,28.05
					C163.088,210.643,172.096,216.111,181.092,211.737"/>
			</g>
		</g>
	</g>
	<g>
		<path style="fill:#9EABD3;" d="M315.234,384.375c0,8.428-18.436,15.26-41.18,15.26c-22.74,0-41.176-6.832-41.176-15.26
			c0-8.426,18.436-15.258,41.176-15.258C296.799,369.117,315.234,375.949,315.234,384.375z"/>
		<g>
			<path style="fill:#2A3348;" d="M294.574,263.129c0.844,4.119-0.305,9.902-1.461,13.887c-2.51,8.65-14.09,12.742-21.787,14.188
				c0,0-15.424,1.773-14.748-19.238L294.574,263.129z"/>
			<path style="fill:#F4B78E;" d="M300.682,229.377c0,0-5.072,5.973-15.158,20.391l1.742,2.955c0,0,17.277-8.703,22.787-18.471
				L300.682,229.377z"/>
			<path style="fill:#F4B78E;" d="M297.768,225.805c0,0,4.596,9.041,9.451,9.502c0,0,2.693,0.17,3.234-1.861
				c0,0,1.889-2.426-3.24-14.4L297.768,225.805z"/>
			<path style="fill:#1A2235;" d="M287.983,190.934c0,0,5.723-0.763,8.676,5.033l12.092,23.984c0,0-1.262,6.393-13.141,7.629
				l-10.967-21.965C284.643,205.615,281.139,193.954,287.983,190.934z"/>
			<path style="fill:#BCBEC0;" d="M308.293,219.045c-0.807,2.977-3.096,4.6-6.021,5.904c-1.305,0.58-3.455,1.197-4.773,0.291
				c-2.127-1.463-1.594-6.174-1.736-8.375c-0.236-3.662-0.428-7.329-0.465-10.999c-0.033-3.369,0.16-6.877-1.086-10.078
				c-0.891-2.285-2.682-3.797-4.811-4.854c-0.859-0.074-1.418,0-1.418,0c-6.844,3.02-3.34,14.681-3.34,14.681l10.967,21.965
				c11.879-1.236,13.141-7.629,13.141-7.629L308.293,219.045z"/>
			<g>
				<path style="fill:#0B1225;" d="M277.412,384.15l0.543,6.287c-0.453,1.283-4.689,1.834-4.689,1.834
					c-2.156-0.09-11.375-4.127-14.387-5.516c-4.08-1.879-5.443-4.623-4.355-7.783c0.512-1.133,4.883-1.008,13.184,2.293
					C267.707,381.266,272.691,383.752,277.412,384.15z"/>
				<path style="fill:#000016;" d="M273.266,390.855c-2.156-0.092-11.375-4.129-14.387-5.516c-2.857-1.316-4.379-3.059-4.66-5.07
					c-0.346,2.611,1.15,4.871,4.66,6.486c3.012,1.389,12.23,5.426,14.387,5.516c0,0,4.236-0.551,4.689-1.834l-0.105-1.225
					C277.066,390.359,273.266,390.855,273.266,390.855z"/>
			</g>
			<g>
				<path style="fill:#0B1225;" d="M297.277,377.178l0.541,6.287c-0.453,1.285-4.689,1.836-4.689,1.836
					c-2.154-0.092-11.373-4.129-14.387-5.516c-4.078-1.881-5.441-4.625-4.353-7.783c0.51-1.133,4.883-1.01,13.184,2.293
					C287.572,374.295,292.555,376.781,297.277,377.178z"/>
				<path style="fill:#000016;" d="M293.129,383.883c-2.154-0.09-11.373-4.127-14.387-5.516c-2.857-1.316-4.379-3.059-4.66-5.068
					c-0.344,2.609,1.15,4.869,4.66,6.486c3.014,1.387,12.232,5.424,14.387,5.516c0,0,4.236-0.551,4.689-1.836l-0.105-1.225
					C296.932,383.387,293.129,383.883,293.129,383.883z"/>
			</g>
			<path style="fill:#2A3348;" d="M256.783,277.492l-0.207,39.049l9.523,66.258c0,0,4.139,4.092,11.547,1.809l-3.59-67.467
				l5.656-40.447L256.783,277.492z"/>
			<path style="fill:#2A3348;" d="M277.955,319.111l9.246,59.125c0,0,6.039,3.787,10.195,0.285l-3.135-65.496l0.541-44.998
				l-18.256,7.867L277.955,319.111z"/>
			<polygon style="fill:#F4B78E;" points="262.777,189.403 265.838,203.504 275.74,198.243 273.441,186.294 			"/>
			<path style="fill:#F4B78E;" d="M266.117,193.182c10.887-2.809,13.182-3.725,17.824-11.738c3.406-5.875,2.045-15.531-2.09-21.308
				c-2.033-2.843-6.131-5.421-9.688-5.748c-7.125-0.655-15.75,2.735-19.484,9.085c-2.271,3.861,1.604,6.249-2.006,12.674
				c0,0-3.322,2.547-0.555,4.431c0,0,1.789,0.653,2.607,2.022c0,0,0.389,2.702,1.029,6.384c0.678,3.903,1.162,5.914,7.068,5.054
				C260.824,194.038,265.535,193.331,266.117,193.182z"/>
			<path style="fill:#1A2235;" d="M296.248,274.965c1.086-31.438-3.897-75.933-3.897-75.933c-0.586-3.912-0.857-8.877-6.15-7.988
				c-3.734,0.627-8.773,2.633-11.076,3.373c-0.801,1.969-4.123,3.262-4.123,3.262c-4.553,2.091-6.152,1.476-6.152,1.476
				c-2.002,1.085-8.256,4.558-10.012,6.004c-1.826,1.501-2.932,3.841-2.355,7.779l2.563,72.43
				C255.045,285.367,271.326,291.203,296.248,274.965z"/>
			<path style="fill:#BCBEC0;" d="M273.955,283.881c-3.229-0.734-6.443-2.059-8.822-4.436c-2.5-2.498-3.896-5.738-4.682-9.148
				c-1.811-7.85-1.732-16.566-0.346-24.479c1.252-7.146,2-14.107,2.648-21.334c0.664-7.436-1.93-20.98,1.928-25.24
				c-2.148,1.17-8.131,4.502-9.844,5.913c-1.826,1.501-2.932,3.841-2.355,7.779l2.563,72.43c0,0,8.031,2.867,21.433-1.037
				C275.635,284.213,274.793,284.07,273.955,283.881z"/>
			<g>
				<path style="fill:#F4B78E;" d="M246.428,236.445l-2.957,19.965c0,0-0.49,5.506,3.689,7c0,0,4.107,0.969,6.363-5.521
					l4.373-19.328L246.428,236.445z"/>
			</g>
			<path style="fill:#1A2235;" d="M253.629,206.471c0,0-5.84,2.291-6.508,11.962l-2.791,20.324c0,0,7.389,6.424,14.773,2.293
				l1.721-24.664C260.824,216.387,260.824,207.527,253.629,206.471z"/>
			<path style="fill:#F4B78E;" d="M245.883,253.982c0,0-10.16,3.377-28.83,14.537l1.209,4.445c0,0,26.068-6.072,33.26-11.41
				L245.883,253.982z"/>
			<g>
				<path style="fill:#F8B78F;" d="M211.193,274.004c-0.459-0.5-2.047,0.541-3.256-1.238c1.816-1.309,2.951-1.963,3.5-2.142
					c0.809-0.266,1.102,0.047,1.816,0.517c0.578,0.381,1.049,0.967,1.652,1.32c0.607,0.359,2.533-0.26,3.344-0.342l0.49,0.799
					c0,0-2.783,2.461-5.197,3.883L211.193,274.004z"/>
				<path style="fill:#F8B78F;" d="M208.584,269.736c1.244-0.459,3.793-1.422,4.088-1.344l2.922,0.381l1.877-0.328
					c0.342,1.955,0.779,3.674,0.779,3.674c-2.461,0.773-3.031,1.023-3.031,1.023s-1.305,0.375-3.061-1.609l-0.908-0.768
					C211.25,270.766,209.025,271.498,208.584,269.736z"/>
				<path style="fill:#F8B78F;" d="M214.223,276.434c0.723-0.441,0.139-0.986,0.139-0.986c-0.398-0.697-0.957-0.32-0.957-0.32
					l0.303-0.186c0.217-0.393-0.291-0.824-0.291-0.824c-0.439-0.568-1.027-0.098-1.027-0.098l0.541-0.383
					c0.25-0.334-0.223-0.846-0.223-0.846c-0.574-0.682-1.098-0.207-1.098-0.207l-0.244,0.15c0,0-0.465-1.811-2.496-0.541
					l-0.932,0.572c0,0,0.031,0.98,1.459,1.242c0,0,0.07,1.258,1.232,1.275c0,0,0.211,0.932,1.15,1.02c0,0,0.336,1.021,1.031,0.867
					L214.223,276.434z"/>
			</g>
			<path style="fill:#603913;" d="M279.605,188.657c9.691-9.494,7.188-21.348,7.184-21.369c-0.547-3.146-1.742-6.799-3.75-9.324
				c-1.375-1.728-3.311-3.106-5.445-4.139c-2.281-1.106-4.787-1.814-7.07-2.135c-2.494-0.35-5.021-0.168-7.467,0.406
				c-1.449,0.34-4.928,2.458-6.25,2.212c-2.818-0.526-1.938-2.294-1.938-2.294c-5.639,3.348-5.227,6.93-5.227,6.93
				c-0.822,6.109,5.805,6.258,5.805,6.258s5.307-0.354,4.273,5.387c0,0,4.037,1.99,3.238,7.432l1.121,0.24
				c0.313-1.313,1.232-4.676,2.506-4.838c3.463-0.44,3.313,0.375,3.875,1.417c0,0,1.322,3.717-4.738,7.921l3.852,9.507l5.234,1.134
				L279.605,188.657z"/>
			<path style="fill:#54300A;" d="M252.789,164.596c7.809,1.235,16.002,1.184,23.986,0.457c3.389-0.309,6.904-1.734,7.535-4.223
				c0.109-0.426-0.107-0.865-0.209-1.285c-0.328-0.559-0.676-1.096-1.063-1.582c-1.375-1.728-3.311-3.106-5.445-4.139
				c-2.281-1.106-4.787-1.814-7.07-2.135c-2.494-0.35-5.021-0.168-7.467,0.406c-1.449,0.34-4.928,2.458-6.25,2.212
				c-2.818-0.526-1.938-2.294-1.938-2.294c-5.639,3.348-5.227,6.93-5.227,6.93c-0.457,3.388,1.379,4.941,3.104,5.654
				C252.762,164.598,252.773,164.594,252.789,164.596z"/>
			<g>
				<path style="fill:#F4B78E;" d="M265.639,179.93c1.465,0.726,3.439-0.271,4.408-2.227c0.969-1.955,0.566-4.129-0.9-4.855
					c-1.467-0.726-3.439,0.27-4.408,2.227C263.77,177.03,264.172,179.204,265.639,179.93z"/>
				<path style="fill:#DD957C;" d="M265.873,177.806c0.492-0.126,0.435-0.36,0.482-0.779c0.033-0.312,0.172-0.537,0.367-0.774
					c0.215-0.264,0.428-0.264,0.639-0.201c0.178-0.015,0.373,0.009,0.555,0.038c0.59,0.096,0.811-0.125,0.725-0.774
					c-0.098-0.742-0.883-1.084-1.615-1.188c-0.31-0.044-0.441-0.279-0.018-0.429c1.311-0.458,2.33,0.659,2.355,1.921
					c0.01,0.45-0.176,0.957-0.621,1.131c-0.018,0.008-0.06,0.014-0.115,0.02c-0.242,0.38-0.629,0.609-0.871,0.996
					c-0.037,0.059-0.084,0.096-0.135,0.123c-0.074,0.163-0.154,0.324-0.262,0.462c-0.324,0.423-0.895,0.044-1.313,0.138
					C265.603,178.588,265.432,177.92,265.873,177.806z"/>
			</g>
		</g>
	</g>
</g>
</svg>
