<?xml version="1.0" standalone="no"?>
<!DOCTYPE svg PUBLIC "-//W3C//DTD SVG 20010904//EN"
 "http://www.w3.org/TR/2001/REC-SVG-20010904/DTD/svg10.dtd">
<svg version="1.0" xmlns="http://www.w3.org/2000/svg"
 width="832.000000pt" height="1472.000000pt" viewBox="0 0 832.000000 1472.000000"
 preserveAspectRatio="xMidYMid meet">

<g transform="translate(0.000000,1472.000000) scale(0.100000,-0.100000)"
fill="#000000" stroke="none">
<path d="M5897 9723 c18 -2 50 -2 70 0 21 2 7 4 -32 4 -38 0 -55 -2 -38 -4z"/>
<path d="M5828 9713 c7 -3 16 -2 19 1 4 3 -2 6 -13 5 -11 0 -14 -3 -6 -6z"/>
<path d="M6140 9677 c0 -3 12 -12 26 -22 15 -9 23 -12 20 -6 -7 11 -46 35 -46
28z"/>
<path d="M5679 9643 c-13 -16 -12 -17 4 -4 9 7 17 15 17 17 0 8 -8 3 -21 -13z"/>
<path d="M6235 9600 c21 -22 41 -40 44 -40 3 0 -13 18 -34 40 -21 22 -41 40
-44 40 -3 0 13 -18 34 -40z"/>
<path d="M5634 9608 l-19 -23 23 19 c21 18 27 26 19 26 -2 0 -12 -10 -23 -22z"/>
<path d="M6311 9500 c14 -31 19 -36 19 -24 0 6 -7 19 -16 30 -14 18 -14 18 -3
-6z"/>
<path d="M5895 9472 c-42 -14 -75 -49 -75 -81 0 -19 41 -12 59 10 16 20 97 37
85 18 -2 -4 -1 -10 4 -13 5 -3 7 -19 4 -37 -4 -24 -12 -34 -38 -45 -33 -14
-34 -16 -34 -70 0 -52 1 -55 23 -52 18 2 23 10 25 41 3 29 9 41 28 49 15 7 23
17 20 25 -3 8 -1 11 4 8 17 -11 25 76 10 105 -9 17 -69 51 -87 49 -4 -1 -17
-4 -28 -7z m47 -169 c-6 -2 -9 -10 -6 -15 4 -7 2 -8 -5 -4 -13 9 -5 26 12 25
9 0 8 -2 -1 -6z"/>
<path d="M5511 9364 c0 -11 3 -14 6 -6 3 7 2 16 -1 19 -3 4 -6 -2 -5 -13z"/>
<path d="M6363 9300 c0 -25 2 -35 4 -22 2 12 2 32 0 45 -2 12 -4 2 -4 -23z"/>
<path d="M5511 9234 c0 -11 3 -14 6 -6 3 7 2 16 -1 19 -3 4 -6 -2 -5 -13z"/>
<path d="M5907 9164 c-4 -4 -7 -16 -7 -26 0 -13 7 -17 25 -16 20 2 25 7 23 23
-3 20 -28 32 -41 19z"/>
<path d="M6306 9093 c-6 -14 -5 -15 5 -6 7 7 10 15 7 18 -3 3 -9 -2 -12 -12z"/>
<path d="M4960 9087 c-54 -15 -106 -46 -140 -82 -35 -38 -86 -62 -160 -75 -99
-18 -145 -49 -156 -106 -5 -27 -9 -31 -23 -24 -31 16 -137 40 -212 47 -106 10
-510 4 -597 -8 -240 -34 -454 -172 -586 -376 -77 -119 -118 -226 -159 -408
-21 -97 -22 -117 -22 -670 1 -485 3 -585 17 -670 89 -531 387 -837 853 -875
60 -4 113 -6 118 -3 4 2 76 4 160 4 177 -1 295 8 275 20 -8 6 0 7 19 3 38 -8
226 53 216 69 -3 6 -1 7 5 3 27 -17 260 152 245 177 -3 6 -2 7 4 4 42 -26 219
302 238 441 3 18 9 41 14 51 15 27 42 286 40 371 l-2 75 63 27 64 26 29 -24
c45 -38 101 -51 150 -33 34 12 46 24 75 77 19 35 36 61 38 60 2 -2 -62 -133
-142 -291 l-145 -287 21 -147 c11 -80 21 -147 22 -148 3 -2 104 8 448 43 107
12 251 26 320 32 69 7 154 16 190 20 36 5 99 11 140 14 140 10 170 19 97 29
-23 3 -51 9 -62 13 -14 6 -16 4 -11 -7 5 -9 3 -8 -6 2 -15 18 -73 40 -82 32
-3 -4 -6 -1 -6 6 0 8 -8 10 -22 6 -16 -4 -19 -3 -10 3 11 8 11 10 -1 15 -8 3
-20 0 -26 -6 -9 -9 -11 -8 -7 3 7 18 -37 41 -62 33 -12 -3 -13 -2 -4 4 9 7 6
13 -13 21 -15 7 -31 9 -37 6 -7 -5 -8 -2 -3 6 6 10 4 12 -9 7 -10 -4 -15 -3
-11 3 3 6 1 10 -4 10 -22 0 -26 2 -42 16 -10 9 -24 12 -34 8 -12 -5 -16 -4
-12 4 14 21 -100 44 -198 40 -93 -3 -148 -22 -197 -68 -26 -24 -38 -17 -15 8
28 31 99 60 176 73 64 11 82 10 149 -6 43 -11 79 -19 82 -20 3 0 15 -6 28 -13
12 -7 27 -10 32 -7 6 3 10 1 10 -5 0 -6 5 -8 10 -5 6 3 10 2 10 -4 0 -8 36
-25 50 -23 3 0 12 -5 20 -12 28 -24 203 -107 216 -102 7 3 14 0 16 -6 2 -5 17
-11 34 -12 17 -2 36 -6 42 -10 32 -20 212 -1 227 24 3 6 16 10 28 10 21 1 21
1 4 14 -15 12 -15 14 -2 19 8 4 14 3 14 -1 -3 -19 3 -22 21 -12 11 6 18 15 15
20 -3 5 0 12 6 16 8 4 9 3 5 -4 -4 -7 -3 -12 2 -12 14 0 33 26 25 34 -4 4 1 4
11 0 13 -5 17 -4 12 4 -5 8 -2 10 9 6 12 -5 16 -2 13 11 -2 12 4 19 18 20 28
2 84 46 79 62 -2 7 2 10 11 6 21 -8 17 -18 -11 -37 -14 -9 -23 -21 -20 -25 4
-8 -16 -22 -35 -25 -19 -3 -109 -80 -103 -88 3 -7 1 -8 -6 -4 -6 4 -36 -5 -66
-20 -30 -14 -87 -31 -125 -37 -65 -11 -70 -13 -70 -37 0 -49 59 -612 65 -618
3 -3 81 2 173 11 92 10 264 27 382 39 120 12 218 26 222 32 10 14 10 49 1 43
-5 -3 -6 18 -4 45 4 60 -6 69 -63 56 -22 -6 -86 -7 -141 -3 -140 9 -144 9
-138 18 2 4 -3 7 -11 7 -8 0 -27 5 -43 12 -15 6 -30 12 -33 13 -75 28 -93 44
-45 41 14 0 25 -5 25 -10 0 -4 7 -6 15 -2 8 3 14 0 12 -6 -1 -6 30 -22 68 -36
58 -21 89 -25 181 -26 76 -1 119 3 136 13 29 15 29 24 9 236 -6 61 -14 140
-18 178 l-6 67 57 0 c32 0 55 4 52 9 -4 5 2 7 12 4 16 -4 156 9 227 21 22 3
22 12 5 161 -6 44 -10 99 -10 122 0 24 -4 43 -8 43 -4 0 -8 12 -7 28 0 19 -4
26 -15 24 -8 -2 -24 -4 -35 -4 -11 0 -85 -6 -164 -14 -79 -8 -146 -12 -148
-10 -4 4 -34 247 -34 279 0 14 -11 9 -52 -25 -32 -27 -45 -34 -35 -20 9 13 32
35 51 48 29 19 35 28 31 51 -3 16 -4 50 -4 76 1 29 -3 46 -9 43 -5 -3 -7 2 -4
13 5 18 -27 378 -48 541 -5 41 -12 109 -14 150 -3 41 -8 90 -11 108 l-5 33
-32 -33 c-18 -18 -31 -37 -28 -43 2 -5 1 -7 -4 -3 -4 4 -16 3 -27 -3 -14 -8
-16 -14 -9 -23 8 -9 7 -13 -4 -13 -8 0 -12 4 -9 9 8 12 -2 10 -44 -8 -20 -9
-71 -19 -112 -21 -61 -4 -90 0 -154 21 -44 14 -84 22 -89 19 -6 -3 -7 -1 -4 4
4 6 -25 20 -74 34 -55 16 -75 25 -62 30 10 3 20 3 23 0 8 -11 82 -31 92 -25 4
3 8 1 8 -4 0 -13 127 -55 141 -46 7 4 9 3 6 -3 -9 -14 84 -26 141 -17 65 9
139 45 195 96 l47 43 -26 270 c-15 160 -30 275 -37 282 -10 10 -40 10 -147 -2
-74 -8 -162 -16 -195 -19 -33 -3 -149 -13 -258 -22 l-199 -18 -86 -173 -87
-173 -35 -2 -35 -1 32 -4 33 -4 -30 -60 c-23 -45 -28 -64 -21 -78 6 -10 59
-97 119 -192 121 -195 132 -218 132 -298 0 -74 -14 -119 -53 -177 -63 -93 -72
-97 -448 -199 -189 -51 -346 -92 -348 -90 -5 5 75 464 82 471 2 3 86 22 187
44 100 21 183 40 184 42 2 2 -30 82 -70 178 -40 96 -79 192 -88 213 l-15 38
-34 -15 c-20 -8 -64 -17 -99 -21 -51 -5 -70 -3 -98 13 -49 26 -80 90 -80 163
l0 57 -40 7 c-21 4 -43 4 -48 1 -5 -3 -12 -43 -16 -88 -16 -205 -53 -346 -109
-426 -36 -49 -111 -101 -159 -109 l-34 -5 -13 -104 c-8 -66 -17 -104 -25 -104
-6 0 -38 27 -70 59 -54 55 -57 59 -36 66 12 4 19 9 17 12 -3 2 -15 0 -26 -6
-17 -9 -30 -7 -69 13 -114 58 -145 119 -121 244 8 47 14 141 14 244 0 164 0
167 25 193 14 15 45 37 70 50 66 34 90 65 108 141 21 84 47 105 160 130 57 13
84 24 105 46 16 15 33 28 37 28 18 0 78 -60 90 -90 7 -17 15 -29 19 -28 28 13
90 66 94 81 3 9 2 15 -2 12 -9 -5 -66 70 -103 135 -71 122 -217 184 -348 147z
m-583 -288 c-9 -6 -14 -15 -11 -21 4 -7 2 -8 -4 -4 -7 4 -17 4 -23 0 -8 -5 -8
-9 1 -14 8 -5 7 -9 -4 -13 -8 -3 -18 -1 -22 5 -5 7 -2 8 6 3 8 -5 11 -4 6 3
-4 7 -15 6 -35 -6 -16 -9 -27 -20 -25 -24 3 -4 -2 -5 -10 -2 -9 3 -16 1 -16
-5 0 -6 -7 -8 -17 -4 -12 5 -14 3 -8 -7 5 -8 4 -11 -2 -7 -12 8 -66 -17 -57
-26 3 -3 -5 -3 -18 0 -19 4 -20 3 -8 -7 12 -9 11 -10 -7 -5 -13 4 -23 2 -23
-4 0 -5 -8 -9 -17 -9 -10 0 -54 -10 -98 -22 -61 -18 -109 -23 -205 -25 -69 -1
-129 1 -135 5 -5 4 -31 13 -58 20 -26 7 -50 17 -54 22 -3 6 3 7 17 3 13 -4 20
-3 17 2 -3 5 3 9 13 9 14 0 16 -4 9 -12 -13 -16 4 -21 106 -34 84 -11 196 -2
292 24 85 23 194 67 188 77 -4 5 1 6 10 3 9 -4 25 2 35 11 11 10 20 15 20 12
0 -4 30 9 68 28 61 31 112 49 69 24z m-97 -25 c0 -2 -9 0 -20 6 -11 6 -20 13
-20 16 0 2 9 0 20 -6 11 -6 20 -13 20 -16z m2647 -48 c-14 -11 -15 -15 -5 -20
7 -3 3 -3 -9 0 -13 3 -23 1 -23 -4 0 -5 -18 -15 -40 -22 -21 -7 -37 -18 -33
-23 3 -6 2 -7 -4 -4 -5 3 -37 -2 -70 -12 -33 -10 -91 -21 -129 -24 -82 -7 -42
7 49 18 31 3 57 11 57 16 0 6 4 8 9 4 14 -8 122 35 116 46 -4 5 0 7 7 4 7 -3
24 4 38 15 14 11 32 20 40 19 12 0 11 -2 -3 -13z m-2916 -270 c-9 -11 -2 -17
35 -31 45 -17 151 -109 171 -148 7 -14 5 -29 -9 -55 -28 -56 -24 -136 11 -199
19 -35 25 -54 17 -57 -6 -3 -4 -5 4 -3 22 2 80 -35 80 -51 0 -9 -6 -12 -17 -7
-53 20 -150 36 -187 29 -93 -15 -144 -46 -338 -206 -58 -48 -108 -88 -111 -88
-3 0 -2 71 1 158 3 86 6 182 6 212 1 32 6 58 14 63 6 4 12 15 12 23 0 8 9 40
20 71 11 31 17 60 13 66 -3 6 -1 7 5 3 6 -4 17 7 27 27 23 50 74 107 122 137
23 15 39 30 36 34 -4 4 -1 5 7 1 8 -3 31 3 50 14 44 24 45 24 31 7z m-288
-251 c-3 -9 -8 -14 -10 -11 -3 3 -2 9 2 15 9 16 15 13 8 -4z m2697 -35 c12 -8
9 -10 -12 -10 -16 0 -28 -4 -28 -10 0 -5 -6 -7 -14 -4 -8 3 -17 1 -21 -5 -3
-6 -13 -11 -21 -11 -25 0 -6 18 26 25 17 4 30 11 30 16 0 12 21 11 40 -1z
m-3180 -78 c0 -5 6 -9 13 -10 6 0 39 -11 72 -23 65 -24 189 -31 295 -16 50 7
53 6 29 -6 -15 -9 -62 -15 -115 -16 -49 -1 -90 -4 -92 -6 -2 -2 -33 5 -69 16
-36 10 -70 16 -74 13 -5 -3 -9 0 -9 5 0 6 -3 10 -7 9 -13 -3 -63 24 -63 34 0
4 5 8 10 8 6 0 10 -4 10 -8z m3205 -72 c3 -5 1 -10 -4 -10 -6 0 -11 5 -11 10
0 6 2 10 4 10 3 0 8 -4 11 -10z m-1857 -330 c13 -6 60 -15 104 -20 73 -7 86
-12 137 -49 31 -23 81 -54 112 -69 l56 -27 -12 -53 c-16 -68 -42 -104 -85
-115 -82 -21 -172 21 -249 115 -46 56 -104 163 -115 213 -4 17 -9 39 -12 50
-5 17 -2 15 18 -7 13 -14 33 -31 46 -38z m-833 -448 l58 -62 -31 -33 c-25 -26
-35 -51 -55 -140 l-24 -109 26 -16 c14 -10 141 -103 281 -207 140 -105 270
-201 288 -214 l32 -23 113 59 c145 77 165 83 270 89 l87 5 35 -36 c27 -27 39
-34 53 -27 30 16 96 22 127 12 l30 -10 -33 5 c-42 6 -132 -13 -133 -28 -1 -7
0 -27 1 -45 2 -35 -16 -66 -32 -56 -9 6 -4 -63 8 -106 6 -25 -12 -43 -48 -45
-18 -2 -45 -8 -61 -15 -22 -11 -32 -11 -52 0 -14 7 -25 19 -25 27 0 9 -10 7
-34 -9 -19 -13 -32 -27 -29 -32 4 -5 1 -6 -4 -3 -13 8 -33 -14 -38 -40 -1 -10
-8 -17 -15 -15 -7 2 -10 -3 -7 -12 4 -11 1 -13 -10 -9 -12 5 -14 3 -8 -7 5 -8
4 -11 -2 -7 -13 8 -65 -27 -56 -38 5 -4 3 -5 -4 -2 -6 4 -32 -2 -58 -13 -26
-11 -56 -20 -66 -20 -11 0 -18 -3 -15 -8 5 -9 -183 -9 -204 1 -8 4 -24 8 -35
10 -11 1 -25 6 -31 9 -6 4 -23 9 -38 12 -15 3 -33 9 -39 14 -7 6 -24 9 -40 7
-15 -2 -25 1 -22 5 3 5 13 7 23 4 9 -3 -5 6 -33 20 -58 30 -58 30 -49 14 4 -7
-3 -3 -16 10 -13 14 -28 21 -38 17 -9 -3 -13 -3 -9 1 8 9 -30 29 -75 40 -18 4
-40 10 -48 13 -8 3 -61 5 -118 6 -76 0 -105 -4 -111 -14 -5 -8 -11 -9 -15 -3
-13 21 64 34 168 28 131 -7 130 -7 138 -20 4 -5 23 -10 42 -10 20 0 31 -3 25
-7 -10 -6 16 -20 41 -24 3 0 11 -4 18 -8 6 -5 17 -5 24 -1 7 5 8 3 3 -6 -6
-10 -4 -12 9 -7 9 4 15 3 12 -2 -3 -4 7 -14 22 -21 37 -17 75 -23 68 -11 -4 5
-2 12 3 16 6 3 8 -5 5 -20 -4 -25 4 -29 53 -28 7 1 11 -2 8 -6 -7 -12 89 -32
157 -33 67 -1 178 26 178 43 0 6 4 8 9 4 13 -7 101 46 102 62 1 7 3 18 4 23 1
6 3 13 4 16 0 3 6 2 11 -1 8 -5 7 -11 -1 -21 -6 -8 -9 -14 -7 -14 3 0 19 18
37 40 28 36 30 41 16 57 -8 10 -21 27 -29 38 -9 12 -15 15 -16 7 0 -7 -4 -11
-9 -8 -4 3 -48 -8 -96 -25 -48 -17 -128 -36 -178 -42 l-90 -11 -181 91 c-100
51 -217 110 -261 131 -44 21 -106 53 -137 70 -32 18 -58 28 -58 24 0 -4 -4 -2
-8 5 -4 6 -36 25 -72 43 -166 79 -217 114 -253 175 -46 78 -52 100 -52 185 0
98 19 146 85 218 22 24 40 46 40 49 0 3 -24 3 -52 0 -43 -5 -49 -4 -33 5 11 7
38 11 60 9 39 -2 43 2 165 124 l125 125 85 -87 c47 -49 112 -116 145 -151z
m2695 76 c1 -13 11 -129 24 -258 14 -129 23 -236 23 -236 -3 -3 -432 -44 -453
-44 -24 0 -39 25 -22 36 7 5 8 2 3 -7 -5 -10 -5 -11 2 -4 21 20 92 168 86 178
-3 6 -2 7 3 4 11 -6 110 179 108 200 -1 7 1 11 5 8 4 -2 19 21 34 51 20 41 32
54 49 54 13 1 46 9 73 20 65 24 65 24 65 -2z m-360 8 c0 -2 -7 -7 -16 -10 -8
-3 -12 -2 -9 4 6 10 25 14 25 6z m-36 -55 c-2 -3 -12 3 -22 13 -16 17 -16 18
5 5 12 -7 20 -15 17 -18z m750 -64 c30 -28 101 -63 141 -71 17 -3 43 -9 58
-12 16 -4 54 1 88 11 56 15 96 14 53 -2 -10 -4 -25 -14 -32 -22 -8 -9 -11 -10
-7 -3 5 9 -6 11 -48 6 -58 -7 -146 8 -184 32 -27 17 -37 18 -27 3 4 -8 0 -7
-15 1 -12 6 -19 15 -16 20 3 5 -6 17 -20 26 -14 9 -25 20 -25 25 0 14 7 11 34
-14z m381 -16 c3 -5 2 -12 -3 -15 -5 -3 -9 1 -9 9 0 17 3 19 12 6z m175 -433
c0 -3 18 -9 41 -13 22 -4 53 -13 67 -21 15 -8 32 -14 38 -14 6 0 17 -7 24 -15
7 -8 17 -12 23 -8 5 3 7 1 3 -5 -3 -6 3 -13 14 -17 11 -4 28 -18 37 -31 13
-21 18 -22 32 -12 14 11 14 11 3 -4 -11 -14 -10 -19 10 -32 12 -9 18 -16 13
-16 -6 0 -31 20 -56 44 -36 34 -49 42 -58 33 -9 -9 -11 -8 -6 3 6 17 -91 72
-160 89 -46 12 -205 15 -205 4 0 -5 -16 -9 -35 -10 -20 -1 -33 3 -30 8 4 5 17
9 31 9 13 0 24 3 24 8 0 4 43 7 95 7 52 0 95 -3 95 -7z m-3480 -440 c0 -7 -4
-7 -13 1 -8 6 -16 9 -19 6 -2 -3 -5 2 -5 9 0 11 5 13 19 5 10 -5 18 -15 18
-21z m44 -34 c5 -14 4 -15 -9 -4 -17 14 -19 20 -6 20 5 0 12 -7 15 -16z"/>
<path d="M4139 8303 c-13 -16 -12 -17 4 -4 16 13 21 21 13 21 -2 0 -10 -8 -17
-17z"/>
<path d="M4120 8047 c0 -2 15 -16 33 -33 l32 -29 -29 33 c-28 30 -36 37 -36
29z"/>
<path d="M3652 7003 c-7 -2 -17 -14 -23 -25 -10 -18 -9 -20 5 -15 9 4 15 2 13
-5 -1 -6 3 -12 8 -14 6 -3 12 11 13 31 2 19 1 35 0 34 -2 0 -9 -3 -16 -6z"/>
<path d="M6229 8993 l-34 -38 38 34 c34 33 42 41 34 41 -2 0 -19 -17 -38 -37z"/>
<path d="M6100 8910 c-8 -5 -10 -10 -5 -10 6 0 17 5 25 10 8 5 11 10 5 10 -5
0 -17 -5 -25 -10z"/>
<path d="M5888 8873 c6 -2 18 -2 25 0 6 3 1 5 -13 5 -14 0 -19 -2 -12 -5z"/>
<path d="M5953 8873 c9 -2 25 -2 35 0 9 3 1 5 -18 5 -19 0 -27 -2 -17 -5z"/>
<path d="M1671 8682 c-41 -59 -161 -231 -266 -382 -106 -151 -317 -455 -470
-675 -154 -220 -337 -483 -407 -584 l-128 -185 0 -147 0 -146 158 -7 c86 -4
234 -9 327 -12 94 -3 240 -9 325 -14 85 -5 219 -11 298 -13 79 -3 145 -7 148
-10 3 -3 -1 -148 -9 -324 -8 -175 -12 -321 -8 -324 10 -11 765 -36 772 -26 4
5 9 3 12 -4 3 -8 6 25 6 74 l1 87 -88 0 c-56 0 -111 7 -155 19 -38 11 -74 18
-82 15 -7 -3 -16 0 -20 5 -3 6 -11 8 -17 5 -6 -4 -8 -2 -5 3 9 14 -19 37 -34
27 -7 -4 -9 -3 -6 3 7 11 -20 28 -38 24 -5 -2 -7 1 -3 4 4 4 -3 16 -15 26 -12
10 -17 18 -12 19 6 0 16 -5 22 -11 30 -30 131 -79 150 -73 13 4 14 3 5 -3 -16
-12 62 -38 80 -27 7 5 8 3 3 -6 -6 -10 -3 -12 13 -8 12 4 22 2 22 -3 0 -5 43
-9 95 -9 l95 0 1 93 c1 146 9 361 14 374 2 7 10 11 17 8 7 -2 90 -6 184 -9
l172 -5 5 157 c3 86 5 173 6 193 l0 36 -182 8 c-100 4 -183 8 -184 9 -1 1 2
87 7 191 5 105 16 350 25 545 8 195 17 402 20 459 6 100 5 104 -12 89 -10 -8
-26 -18 -36 -21 -11 -4 -15 -12 -11 -18 4 -7 3 -9 -3 -6 -5 3 -32 -2 -59 -12
-70 -27 -185 -30 -254 -6 -30 10 -57 18 -60 18 -3 1 -11 7 -19 14 -7 8 -21 11
-29 8 -9 -3 -13 -3 -9 1 10 11 -64 53 -82 46 -8 -3 -12 -1 -8 5 7 11 -71 46
-84 37 -5 -3 -9 0 -9 6 0 20 -146 7 -170 -15 -11 -10 -20 -13 -20 -7 0 27 61
44 144 40 44 -1 84 -7 87 -11 3 -4 16 -9 27 -10 12 -1 22 -4 22 -8 0 -4 15
-12 33 -20 17 -7 44 -21 59 -31 30 -21 42 -23 32 -6 -4 7 -3 8 5 4 6 -4 8 -12
5 -18 -5 -8 -1 -9 10 -5 11 5 15 3 10 -5 -5 -8 -2 -9 10 -5 10 4 15 3 11 -3
-9 -14 8 -12 25 3 12 10 12 9 2 -4 -11 -14 -7 -18 32 -28 50 -12 139 -15 150
-4 4 4 23 8 42 9 20 0 40 7 45 15 5 8 9 11 9 6 0 -10 49 17 82 46 l28 24 10
229 c5 126 10 252 10 281 l0 51 -102 6 c-57 3 -204 10 -328 16 -124 6 -259 12
-300 15 l-75 5 -74 -108z m669 25 c-25 -12 -68 -28 -97 -35 -68 -18 -263 -23
-257 -8 3 7 36 10 92 9 97 -3 174 10 236 37 58 26 80 23 26 -3z m-925 -1017
c22 -11 43 -27 48 -35 4 -9 13 -13 18 -9 5 3 8 0 7 -7 -2 -7 4 -13 12 -14 8 0
15 -4 15 -10 0 -15 37 -55 46 -50 4 3 6 -3 5 -13 0 -9 4 -16 9 -15 6 1 11 -7
12 -17 1 -12 -20 5 -59 48 -62 68 -120 114 -148 117 -8 1 -22 5 -30 8 -8 3
-22 8 -30 10 -8 3 1 6 20 6 20 1 53 -8 75 -19z m286 -287 c-6 -114 -13 -275
-17 -357 l-7 -149 -206 7 c-210 7 -271 13 -271 26 0 4 9 15 20 25 12 10 18 25
16 32 -3 7 0 12 6 10 6 -1 13 4 16 12 3 8 0 11 -7 7 -17 -11 -13 0 6 15 15 12
16 12 8 -1 -8 -13 -6 -13 7 -2 9 8 14 20 11 28 -3 8 -1 14 5 12 16 -5 175 215
164 227 -4 4 0 5 8 3 9 -2 14 4 14 14 -1 10 2 15 7 12 5 -3 12 3 16 13 4 10
17 29 30 43 13 14 40 50 60 80 21 30 42 57 46 58 4 2 3 10 -4 18 -10 12 -9 13
4 8 10 -3 20 3 28 18 7 13 12 25 12 28 -1 3 3 4 8 2 5 -1 12 5 16 13 13 36 14
-3 4 -202z m324 -143 c-11 -17 15 -42 31 -30 9 9 12 7 10 -7 -3 -20 42 -56 57
-46 6 3 7 1 3 -5 -3 -6 3 -16 14 -22 11 -6 20 -8 20 -5 0 3 14 -2 31 -11 39
-20 200 -17 207 4 2 6 8 10 13 7 4 -3 23 1 41 10 l33 16 -24 -19 c-30 -24
-117 -52 -162 -52 -19 0 -61 7 -93 15 -32 8 -62 12 -68 9 -7 -4 -8 -2 -4 4 6
11 -6 16 -26 13 -5 0 -7 5 -5 12 1 6 -3 11 -10 10 -16 -3 -86 83 -78 97 3 5 8
10 11 10 3 0 2 -5 -1 -10z m15 -80 c0 -5 -2 -10 -4 -10 -3 0 -8 5 -11 10 -3 6
-1 10 4 10 6 0 11 -4 11 -10z m-991 -325 c36 -9 74 -21 85 -26 14 -8 21 -7 28
3 7 9 8 8 4 -6 -5 -14 -2 -17 9 -12 9 3 13 2 10 -4 -3 -5 13 -20 36 -32 68
-37 79 -44 102 -65 12 -11 32 -20 44 -18 12 1 20 -1 18 -5 -11 -18 84 -87 100
-72 5 4 5 1 1 -6 -6 -9 -1 -11 18 -8 15 3 24 1 21 -3 -7 -13 22 -34 36 -25 8
4 9 3 5 -4 -6 -10 42 -29 91 -36 7 -1 16 -5 19 -9 17 -16 124 -6 190 18 38 14
70 25 72 25 2 0 0 5 -4 12 -4 7 -3 8 4 4 11 -6 91 28 102 44 3 4 39 23 81 44
133 64 259 79 373 42 27 -8 53 -13 58 -10 4 3 8 0 8 -7 0 -7 3 -10 6 -6 4 3
13 -1 21 -9 9 -8 22 -13 30 -10 8 3 11 1 8 -4 -4 -6 7 -16 24 -23 17 -7 29
-15 27 -18 -2 -2 11 -15 29 -29 37 -28 75 -79 75 -101 0 -8 -8 -2 -18 14 -10
15 -22 24 -27 20 -4 -5 -5 -2 -1 5 8 14 -18 45 -29 34 -4 -4 -5 0 -3 8 2 9 -3
14 -12 12 -8 -2 -12 0 -8 3 14 15 -123 91 -199 112 -16 4 -75 7 -133 7 -103 0
-107 0 -197 -43 -51 -24 -90 -47 -88 -51 3 -4 -3 -7 -13 -6 -9 0 -16 -5 -14
-12 1 -8 -1 -11 -6 -8 -9 6 -93 -32 -103 -47 -3 -5 -10 -9 -15 -8 -5 0 -34 -7
-64 -16 -62 -18 -221 -13 -246 8 -8 6 -14 8 -14 4 0 -4 -11 0 -25 9 -14 9 -30
14 -35 11 -6 -3 -10 -2 -10 4 0 14 -67 44 -79 36 -6 -3 -9 0 -6 7 2 7 -10 22
-28 34 -18 11 -31 26 -29 33 2 9 -3 9 -19 0 -12 -6 -19 -7 -15 -1 3 5 -13 22
-37 38 -23 15 -42 26 -42 24 0 -2 -10 5 -23 15 -12 11 -26 20 -30 20 -4 0 -21
10 -38 22 -76 54 -209 81 -304 61 -14 -3 -31 -6 -38 -7 -7 0 -10 -5 -7 -11 3
-6 -1 -7 -10 -4 -21 9 -9 20 35 32 53 15 126 14 199 -3z m-259 -30 c0 -8 -4
-15 -10 -15 -5 0 -7 7 -4 15 4 8 8 15 10 15 2 0 4 -7 4 -15z m-36 -30 c-7 -16
-24 -21 -24 -6 0 8 7 13 27 20 1 1 0 -6 -3 -14z m1903 -210 c0 -8 -4 -12 -9
-9 -5 3 -6 10 -3 15 9 13 12 11 12 -6z"/>
<path d="M5416 8594 c-15 -9 -37 -14 -47 -11 -15 4 -19 0 -19 -24 0 -28 1 -29
55 -29 l55 0 0 40 c0 44 -3 46 -44 24z"/>
<path d="M5472 8550 c0 -14 2 -19 5 -12 2 6 2 18 0 25 -3 6 -5 1 -5 -13z"/>
<path d="M5213 8520 c-39 -16 -26 -30 27 -30 52 0 64 12 31 30 -23 12 -28 12
-58 0z"/>
<path d="M5199 8460 l-24 -20 33 11 c18 6 47 9 65 5 30 -5 31 -5 13 9 -27 21
-59 19 -87 -5z"/>
<path d="M4870 8461 c-21 -15 -13 -18 70 -25 71 -7 74 -6 58 10 -19 19 -106
30 -128 15z"/>
<path d="M5084 8450 c21 -97 47 -208 52 -222 4 -15 -1 -18 -28 -19 -26 0 -29
-2 -13 -8 27 -11 55 -2 55 18 -1 23 -57 241 -65 249 -4 4 -4 -4 -1 -18z"/>
<path d="M5237 8414 c-4 -4 -7 -16 -7 -26 0 -15 6 -19 28 -16 19 2 27 9 27 23
0 20 -33 33 -48 19z"/>
<path d="M4904 8395 c-18 -13 -16 -14 17 -8 20 3 46 0 58 -6 13 -7 21 -8 21
-2 0 13 -33 31 -57 31 -11 0 -28 -7 -39 -15z"/>
<path d="M5510 8291 c5 -11 15 -23 21 -27 6 -3 3 5 -6 20 -20 30 -30 35 -15 7z"/>
<path d="M7839 8303 c-1 -5 -1 -11 -1 -14 1 -4 -7 -5 -16 -2 -17 4 -34 -18
-41 -52 -2 -5 -7 -15 -12 -22 -11 -13 -2 -80 13 -89 5 -3 6 -15 3 -27 -6 -21
-5 -21 8 1 7 12 16 19 20 16 4 -4 7 -1 7 6 0 7 3 10 7 7 3 -4 17 8 30 25 23
32 28 76 16 136 -5 20 -31 32 -34 15z"/>
<path d="M5562 8234 c10 -10 20 -16 22 -13 3 3 -5 11 -17 18 -21 13 -21 12 -5
-5z"/>
<path d="M4970 8140 c0 -5 9 -10 19 -10 11 0 34 -12 52 -27 25 -21 31 -24 26
-10 -4 10 -7 20 -7 23 0 7 -59 34 -75 34 -8 0 -15 -4 -15 -10z"/>
<path d="M4938 7753 c6 -2 18 -2 25 0 6 3 1 5 -13 5 -14 0 -19 -2 -12 -5z"/>
<path d="M4980 7746 c0 -2 7 -7 16 -10 8 -3 12 -2 9 4 -6 10 -25 14 -25 6z"/>
<path d="M7476 7604 c-117 -36 -209 -191 -180 -302 8 -29 42 -37 103 -22 105
25 182 134 189 268 l4 72 -33 -1 c-19 0 -56 -7 -83 -15z"/>
<path d="M555 7590 c-4 -6 -14 -9 -23 -6 -22 7 -56 -19 -46 -35 5 -8 3 -10 -5
-5 -13 9 -43 -23 -35 -36 3 -5 1 -8 -5 -8 -6 0 -15 -8 -20 -19 -10 -17 -6 -19
52 -19 75 0 130 22 181 73 21 20 36 38 34 40 -30 25 -121 35 -133 15z m40 -90
c-3 -5 -12 -10 -18 -10 -7 0 -6 4 3 10 19 12 23 12 15 0z"/>
<path d="M6268 6293 c-16 -2 -28 -9 -28 -14 0 -5 -6 -8 -12 -6 -7 1 -12 -3
-11 -10 2 -7 -3 -10 -11 -7 -17 7 -65 -54 -72 -92 -3 -15 -8 -32 -11 -37 -4
-6 -1 -7 8 -2 12 8 12 6 0 -8 -12 -15 -11 -17 13 -15 14 1 26 6 26 10 0 4 7 4
17 1 12 -5 14 -3 8 7 -5 9 -4 11 4 6 15 -9 62 20 58 36 -1 7 5 12 13 13 8 0
30 25 48 55 29 49 31 55 15 62 -19 7 -24 7 -65 1z m-12 -65 c4 -7 4 -10 -1 -6
-4 4 -15 2 -24 -5 -14 -11 -14 -10 -2 6 16 20 18 21 27 5z"/>
<path d="M2765 6240 c10 -11 20 -20 23 -20 3 0 -3 9 -13 20 -10 11 -20 20 -23
20 -3 0 3 -9 13 -20z"/>
<path d="M2830 6165 c19 -19 36 -35 39 -35 3 0 -10 16 -29 35 -19 19 -36 35
-39 35 -3 0 10 -16 29 -35z"/>
<path d="M5241 6108 c-46 -13 -113 -60 -136 -94 -10 -15 -30 -39 -44 -52 -16
-16 -19 -21 -7 -15 14 8 33 5 72 -8 68 -24 116 -24 196 1 58 18 178 85 178
100 0 10 -69 52 -107 66 -44 15 -104 16 -152 2z"/>
<path d="M2885 6089 c-4 -6 -4 -13 -1 -16 3 -4 6 0 6 8 0 7 28 -13 63 -46 l62
-60 -60 63 c-33 34 -60 62 -62 62 -1 0 -5 -5 -8 -11z"/>
<path d="M2891 6044 c0 -11 3 -14 6 -6 3 7 2 16 -1 19 -3 4 -6 -2 -5 -13z"/>
<path d="M2877 5975 c-16 -25 -30 -64 -34 -93 -6 -51 11 -147 28 -158 14 -8
37 14 67 60 36 58 35 130 -4 190 l-30 45 -27 -44z m67 -41 c3 -8 2 -12 -4 -9
-6 3 -10 10 -10 16 0 14 7 11 14 -7z"/>
<path d="M3051 5945 c9 -11 14 -26 11 -34 -2 -8 0 -11 6 -7 6 4 8 -2 4 -16 -4
-16 -2 -19 8 -13 9 5 11 4 6 -3 -4 -6 0 -24 8 -40 38 -73 149 -129 232 -116
65 9 70 17 44 55 -62 92 -165 159 -250 164 -28 1 -58 9 -67 16 -17 13 -17 12
-2 -6z m98 -48 c8 -10 7 -14 -4 -14 -8 0 -12 4 -9 8 2 4 -2 10 -8 12 -8 4 -9
6 -2 6 6 1 17 -5 23 -12z m41 -33 c0 -8 -19 -13 -24 -6 -3 5 1 9 9 9 8 0 15
-2 15 -3z"/>
<path d="M6930 5373 c-14 -10 -35 -27 -47 -39 l-21 -21 42 -22 c47 -23 66 -26
66 -11 0 5 6 7 14 4 16 -6 82 35 91 56 17 42 -95 68 -145 33z"/>
</g>
</svg>
